<svg xmlns="http://www.w3.org/2000/svg" viewBox="0 0 370.41 197.26"><defs><style>.a{fill:#a21422;}</style></defs><title>logo=varnoff-studio</title><path class="a" d="M204.24,140.45a24.54,24.54,0,0,0,5.8-3.18l-1.23-.61c-1.73-1.15-4.79-3.45-6.09-3a18.8,18.8,0,0,0-5,2.89c-11.24,4.71-20.37-2.79-31.77,0-2.33.58-8.87,3.9-7.38,6.94s7.64,4.4,11.17,4.07c.49,0-1.94-1.68-2.2-1.81-.41-.23-.91-.54-1.45-.85.8-1.48,2.7-2.63,4-3.43,4.4-2.63,9.29-1.77,13.23-1.19,2.79.41,4.69.89,7.52,1.21a141.65,141.65,0,0,0-12.49,12.75c-6.5,7.5-11.87,16.34-5.37,22.31,5.86,5.4,15.16,6,24.18,3.56a54,54,0,0,0,8.67-3.13c5.3-2.29,2.3-3.85-.37-7.46-2,1-6.15,3.18-8.12,3.93a80.28,80.28,0,0,1-13.15,3.81c-4.44.87-5.47-.71-5.68-1.5-2-7.35,5.76-15.38,11.3-21.41C193.6,150.2,198.9,144.28,204.24,140.45Zm43.12-6.84c-6.3-1.08-11.79,4.58-15.89,10.24.29-1.86.58-3.68.91-5.46.17-1-2.28-3.09-2.84-3.7-.19-.21-3.5-3.11-3.5-3.06-2.21,12.18-3.15,26.79-9.87,37.74a43.36,43.36,0,0,1-4.8,6.1c-.57.59,4.81,6.5,5.23,6.08a31.08,31.08,0,0,0,4-4.83c8.34-11.63,12.34-27,24.8-35.17,2.59-1.69,7.1-2.8,9.53-.88a17,17,0,0,1,.25,2.58,26.75,26.75,0,0,1-.87,6.62c-1.44,6.49-4.42,12.44-6.89,18.55a71.61,71.61,0,0,0-2.49,7.05c-.57,2,5.81,5.3,6.59,5.87A83.53,83.53,0,0,1,255,171.8c2.6-6.14,5.38-12.07,6.33-19.06C262.42,144.58,255.62,135,247.36,133.61ZM142.42,135A49.67,49.67,0,0,0,125,132.12c-15.94,0-28.43,6.25-37,15.19-8.12,8.47-11.22,17.92-10.12,27.43.69,6,10.61,6.79,10.61,6.79-5.6-6.39-3.88-14.17-.4-22.62,4-9.64,11.94-15.38,18.77-18.28a41.42,41.42,0,0,1,18.05-3.82c9.48,0,16.65,2.5,20.17,7,2.77,3.55,3.4,8.36,1.9,14.31-1.2,4.75-3.82,9.64-8.25,15.38a20.26,20.26,0,0,1-1.73,2,1,1,0,0,1-1.2-.4c-2.61-3.83-3.85-9.36-3.78-16.9a74.82,74.82,0,0,1,.75-10.73l0-.22a.61.61,0,0,0-.15-.49c-.19-.22-.58-.42-2.08-.42A26,26,0,0,0,125,147c-.83-.06-1.68-.09-2.52-.09-8.39,0-16.68,3-22.16,8-4.62,4.23-7.1,8.65-7.6,13.52-.54,5.26,3,11.77,8.86,12.72a23.55,23.55,0,0,0,3.67.29c8.31,0,16.14-4.32,20.61-8.14a23.59,23.59,0,0,0,1.5,3.12c1.4,2.4,3.38,3.73,7.24,3.73a20.19,20.19,0,0,0,10-2.73c3.91-2.51,7.54-7.18,9.73-12.52,2.72-6.64,2.91-12.75.55-18.14A23.22,23.22,0,0,0,142.42,135ZM121.2,164.16c-2.37,5.79-6.91,10.3-13.86,13.79a6.14,6.14,0,0,1-.5-.39c-1.3-1-2.39-2.69-3.33-5.25-1.33-3.62-.18-7.46,1-10,1.36-2.93,4.86-8.31,13.05-11.5a14.77,14.77,0,0,1,6.07-1l.29,0C123.72,153.47,122.49,161,121.2,164.16Zm75.6-133.7c.48-.19-5.34-.45-6.69.1C159.19,43.44,130.91,62,108.69,86.86c-12.33,13.81-38.94,53.05-39.8,54.32,6-29.66,21.23-67.66,35.11-97a22.37,22.37,0,0,0,6.26-14.68c0-.67-8.49-2.31-8.85-1.51q-3.23,7.29-6.25,14.67c-3.67,4-8.56,7-13.64,9.67-6.26,3.29-18.64,7.43-17.19,16.51.17,1.09,7.87,2,8.84,1.51a37.26,37.26,0,0,0,10.17-8.69c-.35.4-2.75-.66-5-1.36,3.77-2.78,8.73-4.76,12-6.47l.39-.2c-20.83,45-30.19,80.46-37.28,119.91-.59,4.61,4.9,9.91,5.13,9.1a141.88,141.88,0,0,1,4.53-14.09c6.2-16.31,19.15-40.63,50.76-78.67C135.7,63.65,165.2,43.62,196.8,30.46Zm208.66-.39C397,34,390.93,44.62,386.93,52.35c-10.67,20.61-17.33,43.08-24.43,65.1-2,.08-3.92.11-5.87.06s-5.36,3-6.87,4.08c-.35.25-4.08,3.17-3.31,3.18a88.8,88.8,0,0,0,13.92-.72c-5.64,17.34-11.17,34.16-17.36,51.43-.22.63.25,2.2,2.87,3.56,1.43.75,2.89,1.55,3.75,2,6.86-19.22,12.74-38.87,18.88-58.43,2.87-.62,5.7-1.37,8.48-2.27,2.46-.79,4.79-2.59,6.87-4.08.48-.34,3.76-3.33,3.31-3.18a93.87,93.87,0,0,1-16.81,3.69C375.67,100,381.29,83.39,388,67.18c4.62-11.23,9.29-21.1,17.36-29.17,1.74-1.74,5.77-3.41,8.16-4.12a4,4,0,0,1,.84-.16c1.6,2.09,3,5,.56,6.29.68-.36,5.86,6.15,7.64,5.22C427.9,42.45,415.76,25.33,405.45,30.08Zm9.65,3.68c.28.07.29.15,0,0ZM350.4,181.53a7.42,7.42,0,0,0-.78-.46c-.06.15-.1.3-.15.46Zm-57.61-47.38c-6.76-2-16.64,7.43-18.73,10.15-5.23,6.79-12.72,20.41-6.45,28.6,3.5,4.57,8.15,8.55,14.07,8.64,10,.14,17.79-8.54,22-16.78,3.78-7.42,3.74-18.89-1.84-25.28A19,19,0,0,0,292.79,134.15Zm2.34,30.92c-9.37,12.45-21.12,10.19-22.71,9.9v0c-1.8-7.3,1.79-16.78,6.05-22.32,11.27-14.65,18.5-12.88,18.86-12.82C297.91,141,303.69,153.7,295.13,165.07Zm56.84-52a94.18,94.18,0,0,1-16.81,3.69c5.32-16.76,10.94-33.41,17.62-49.62,4.62-11.23,9.29-21.1,17.36-29.17,1.74-1.74,5.78-3.41,8.16-4.12a4,4,0,0,1,.84-.16c1.6,2.09,3,5,.55,6.29.68-.36,5.87,6.15,7.64,5.22,5.37-2.78-6.78-19.9-17.08-15.16-8.47,3.9-14.52,14.55-18.53,22.27C341.06,73,334.4,95.42,327.3,117.44c-2,.08-3.92.11-5.87.06s-5.37,3-6.87,4.08c-.36.25-4.09,3.17-3.31,3.18a88.62,88.62,0,0,0,13.91-.72c-5.63,17.34-11.17,34.16-17.35,51.43-.22.63.25,2.2,2.86,3.56,1.44.75,2.9,1.55,3.76,2,6.86-19.22,12.74-38.87,18.88-58.43,2.87-.62,5.7-1.37,8.48-2.27,2.46-.79,4.79-2.59,6.87-4.08C349.13,116,352.42,113,352,113.11ZM379.9,33.76c.28.07.3.15,0,0ZM315.19,181.53a6.11,6.11,0,0,0-.76-.46l-.16.46Z" transform="translate(-53.43 -27.78)"/><rect class="a" x="262.29" y="160.73" width="3.1" height="3.74"/><path class="a" d="M347,201.3c-2.12-2.34-5.15-3.53-9-3.53s-6.87,1.19-9,3.54-3.21,5.77-3.21,10.08,1.08,7.75,3.21,10.12,5.15,3.53,9,3.53,6.88-1.19,9-3.54,3.2-5.77,3.2-10.11S349.15,203.66,347,201.3Zm-2.31,18.22a8.07,8.07,0,0,1-6.66,2.93,8.2,8.2,0,0,1-6.72-2.92c-1.54-1.9-2.31-4.63-2.31-8.13s.77-6.23,2.3-8.11a8.2,8.2,0,0,1,6.74-2.91,8.05,8.05,0,0,1,6.66,2.93c1.51,1.9,2.27,4.62,2.27,8.1S346.21,217.62,344.71,219.52Z" transform="translate(-53.43 -27.78)"/><rect class="a" x="262.29" y="170.87" width="3.1" height="25.56"/><path class="a" d="M272.47,220.53l1.33-2.21v5.9h2.9V198.65h-3.1v13.83c0,3.16-.74,5.6-2.2,7.27a8.19,8.19,0,0,1-6.49,2.55c-2.2,0-3.81-.61-4.78-1.81s-1.41-3.14-1.41-6V198.65h-3.15v16.78a22.34,22.34,0,0,0,.26,4.05,6.19,6.19,0,0,0,.81,2.07,6.55,6.55,0,0,0,2.9,2.45,12,12,0,0,0,9.55-.21A8.64,8.64,0,0,0,272.47,220.53Z" transform="translate(-53.43 -27.78)"/><path class="a" d="M249.93,221.8l-.73,0-1,0a3,3,0,0,1-2.45-.86,4.42,4.42,0,0,1-.69-2.88V200.82h4.87v-2.17h-4.87v-7.54H242v7.54h-4v2.17h4v18.84c0,1.89.36,3.19,1.06,3.87s2.06,1,4,1a14,14,0,0,0,1.52-.1c.43,0,.89-.11,1.4-.19Z" transform="translate(-53.43 -27.78)"/><path class="a" d="M234.35,216.89a5.86,5.86,0,0,0-1.55-4.41c-1.08-1.05-3.14-1.94-6.12-2.65l-4.38-1a9,9,0,0,1-3.64-1.45,3.23,3.23,0,0,1-1.15-2.6,3.86,3.86,0,0,1,1.74-3.39,8.09,8.09,0,0,1,4.57-1.08,8,8,0,0,1,4.77,1.31,4.87,4.87,0,0,1,2,3.18h3a6.42,6.42,0,0,0-2.55-4.84,11.4,11.4,0,0,0-7.22-2.09,11.18,11.18,0,0,0-7,2,6.08,6.08,0,0,0-2.43,5.12,5.89,5.89,0,0,0,1.47,4.35c1,1,2.91,1.89,5.62,2.54l5.07,1.31a8.15,8.15,0,0,1,3.6,1.54,3.69,3.69,0,0,1,1.07,2.81,4.3,4.3,0,0,1-2,3.74,8.85,8.85,0,0,1-5,1.27,8.27,8.27,0,0,1-5.36-1.57,6.26,6.26,0,0,1-2.16-4h-3a8.15,8.15,0,0,0,2.59,5.88c1.71,1.52,4.24,2.29,7.5,2.29s6-.73,7.83-2.18A7.1,7.1,0,0,0,234.35,216.89Z" transform="translate(-53.43 -27.78)"/><path class="a" d="M307.21,224.21v-35.7h-3v14.85l-1.29-1.7a9.66,9.66,0,0,0-3.51-2.92,10.75,10.75,0,0,0-4.69-1,9.79,9.79,0,0,0-8,3.66c-2,2.47-3.06,5.87-3.06,10.09s1,7.48,3,9.91a9.85,9.85,0,0,0,8.06,3.61,10.32,10.32,0,0,0,4.52-1,10.93,10.93,0,0,0,3.69-3l1.27-1.55v4.69Zm-5-4.77a7.74,7.74,0,0,1-6.47,3,7.94,7.94,0,0,1-6.47-2.91,11.94,11.94,0,0,1-2.32-7.71c0-3.56.75-6.36,2.24-8.33a7.69,7.69,0,0,1,6.5-3.07,8,8,0,0,1,6.58,2.81c1.45,1.82,2.18,4.51,2.18,8S303.64,217.5,302.16,219.44Z" transform="translate(-53.43 -27.78)"/></svg>